<?xml version="1.0" standalone="no"?><!DOCTYPE svg PUBLIC "-//W3C//DTD SVG 1.1//EN" "http://www.w3.org/Graphics/SVG/1.1/DTD/svg11.dtd"><svg t="1630830273410" class="icon" viewBox="0 0 1024 1024" version="1.1" xmlns="http://www.w3.org/2000/svg" p-id="3881" xmlns:xlink="http://www.w3.org/1999/xlink" width="500" height="500"><defs><style type="text/css"></style></defs><path d="M76.632 61.078l870.7 0 0 98.08-870.7 0 0-98.08Z" p-id="3882" fill="#ffffff"></path><path d="M871.658 644.884 871.658 261.472 152.324 261.472l0 383.412L871.658 644.884zM256.636 359.486l511.776 0 0 187.456L256.636 546.942 256.636 359.486z" p-id="3883" fill="#ffffff"></path><path d="M716.044 865.908c31.298-47.93 60.836-103.482 88.206-166.554l-104.634-38.14c-27.2 74.724-58.904 143.08-94.948 204.696l-182.12 0c-30.182-79.84-64.24-148.126-102.45-204.696l-96.252 38.14c39.7 59.548 71.71 114.966 96.252 166.554L52.008 865.908l0 97.014 919.984 0 0-97.014L716.044 865.908z" p-id="3884" fill="#ffffff"></path></svg>