<?xml version="1.0" standalone="no"?><!DOCTYPE svg PUBLIC "-//W3C//DTD SVG 1.1//EN" "http://www.w3.org/Graphics/SVG/1.1/DTD/svg11.dtd"><svg t="1630830250811" class="icon" viewBox="0 0 1024 1024" version="1.1" xmlns="http://www.w3.org/2000/svg" p-id="3026" xmlns:xlink="http://www.w3.org/1999/xlink" width="500" height="500"><defs><style type="text/css"></style></defs><path d="M287.486631 913.566802H120.925091v-533.903743H287.486631v533.903743zM205.347594 306.652406c-25.096214 0-47.914439-9.128385-68.449198-27.379679-18.251294-18.251294-27.379679-41.069519-27.379679-68.449198s9.128385-47.914439 27.379679-68.449197 41.069519-27.379679 68.449198-27.37968 47.914439 9.128385 68.449197 27.37968c18.251294 18.251294 27.379679 41.069519 27.37968 68.449197s-9.128385 47.914439-27.37968 68.449198c-18.251294 18.251294-41.069519 27.379679-68.449197 27.379679z m702.743272 606.914396h-166.556064v-260.106952c0-43.347508-4.56693-73.010652-11.41185-93.545411-13.68984-31.941134-38.786053-47.914439-77.572107-47.914439-38.791529 0-61.604278 13.68984-77.577583 43.352984-11.406374 20.534759-18.251294 52.475893-18.251294 93.545412v264.668406h-164.278075v-533.903743h159.711144v73.016128h2.283466c11.406374-22.818225 31.941134-43.352984 57.042823-59.326289 27.379679-18.251294 61.604278-27.379679 100.390332-27.379679 77.577583 0 132.336941 25.10169 161.994609 73.016129 22.818225 38.786053 36.508064 100.390332 36.508065 182.529369v292.048085h-2.283466z" p-id="3027" fill="#ffffff"></path></svg>